{
  "asset": {
    "version": "2.0",
    "generator": "AVARRA Gothic Kit"
  },
  "buffers": [
    {
      "byteLength": 1800,
      "uri": "../cube/Cube.bin"
    },
    {
      "byteLength": 768,
      "uri": "AshenVanguardAnimation.bin"
    }
  ],
  "bufferViews": [
    {
      "buffer": 0,
      "byteLength": 72,
      "byteOffset": 0,
      "target": 34963
    },
    {
      "buffer": 0,
      "byteLength": 432,
      "byteOffset": 72,
      "target": 34962
    },
    {
      "buffer": 0,
      "byteLength": 432,
      "byteOffset": 504,
      "target": 34962
    },
    {
      "buffer": 0,
      "byteLength": 576,
      "byteOffset": 936,
      "target": 34962
    },
    {
      "buffer": 0,
      "byteLength": 288,
      "byteOffset": 1512,
      "target": 34962
    },
    {
      "buffer": 1,
      "byteLength": 16,
      "byteOffset": 0
    },
    {
      "buffer": 1,
      "byteLength": 48,
      "byteOffset": 16
    },
    {
      "buffer": 1,
      "byteLength": 64,
      "byteOffset": 64
    },
    {
      "buffer": 1,
      "byteLength": 64,
      "byteOffset": 128
    },
    {
      "buffer": 1,
      "byteLength": 16,
      "byteOffset": 192
    },
    {
      "buffer": 1,
      "byteLength": 48,
      "byteOffset": 208
    },
    {
      "buffer": 1,
      "byteLength": 64,
      "byteOffset": 256
    },
    {
      "buffer": 1,
      "byteLength": 64,
      "byteOffset": 320
    },
    {
      "buffer": 1,
      "byteLength": 16,
      "byteOffset": 384
    },
    {
      "buffer": 1,
      "byteLength": 48,
      "byteOffset": 400
    },
    {
      "buffer": 1,
      "byteLength": 64,
      "byteOffset": 448
    },
    {
      "buffer": 1,
      "byteLength": 64,
      "byteOffset": 512
    },
    {
      "buffer": 1,
      "byteLength": 16,
      "byteOffset": 576
    },
    {
      "buffer": 1,
      "byteLength": 48,
      "byteOffset": 592
    },
    {
      "buffer": 1,
      "byteLength": 64,
      "byteOffset": 640
    },
    {
      "buffer": 1,
      "byteLength": 64,
      "byteOffset": 704
    }
  ],
  "accessors": [
    {
      "bufferView": 0,
      "componentType": 5123,
      "count": 36,
      "max": [
        35
      ],
      "min": [
        0
      ],
      "type": "SCALAR"
    },
    {
      "bufferView": 1,
      "componentType": 5126,
      "count": 36,
      "max": [
        1,
        1,
        1.000001
      ],
      "min": [
        -1,
        -1,
        -1
      ],
      "type": "VEC3"
    },
    {
      "bufferView": 2,
      "componentType": 5126,
      "count": 36,
      "max": [
        1,
        1,
        1
      ],
      "min": [
        -1,
        -1,
        -1
      ],
      "type": "VEC3"
    },
    {
      "bufferView": 3,
      "componentType": 5126,
      "count": 36,
      "max": [
        1,
        0,
        0,
        1
      ],
      "min": [
        0,
        0,
        -1,
        -1
      ],
      "type": "VEC4"
    },
    {
      "bufferView": 4,
      "componentType": 5126,
      "count": 36,
      "max": [
        1,
        1
      ],
      "min": [
        -1,
        -1
      ],
      "type": "VEC2"
    },
    {
      "bufferView": 5,
      "componentType": 5126,
      "count": 4,
      "max": [
        1.6
      ],
      "min": [
        0
      ],
      "type": "SCALAR"
    },
    {
      "bufferView": 6,
      "componentType": 5126,
      "count": 4,
      "type": "VEC3"
    },
    {
      "bufferView": 7,
      "componentType": 5126,
      "count": 4,
      "type": "VEC4"
    },
    {
      "bufferView": 8,
      "componentType": 5126,
      "count": 4,
      "type": "VEC4"
    },
    {
      "bufferView": 9,
      "componentType": 5126,
      "count": 4,
      "max": [
        0.6
      ],
      "min": [
        0
      ],
      "type": "SCALAR"
    },
    {
      "bufferView": 10,
      "componentType": 5126,
      "count": 4,
      "type": "VEC3"
    },
    {
      "bufferView": 11,
      "componentType": 5126,
      "count": 4,
      "type": "VEC4"
    },
    {
      "bufferView": 12,
      "componentType": 5126,
      "count": 4,
      "type": "VEC4"
    },
    {
      "bufferView": 13,
      "componentType": 5126,
      "count": 4,
      "max": [
        0.6
      ],
      "min": [
        0
      ],
      "type": "SCALAR"
    },
    {
      "bufferView": 14,
      "componentType": 5126,
      "count": 4,
      "type": "VEC3"
    },
    {
      "bufferView": 15,
      "componentType": 5126,
      "count": 4,
      "type": "VEC4"
    },
    {
      "bufferView": 16,
      "componentType": 5126,
      "count": 4,
      "type": "VEC4"
    },
    {
      "bufferView": 17,
      "componentType": 5126,
      "count": 4,
      "max": [
        0.18
      ],
      "min": [
        0
      ],
      "type": "SCALAR"
    },
    {
      "bufferView": 18,
      "componentType": 5126,
      "count": 4,
      "type": "VEC3"
    },
    {
      "bufferView": 19,
      "componentType": 5126,
      "count": 4,
      "type": "VEC4"
    },
    {
      "bufferView": 20,
      "componentType": 5126,
      "count": 4,
      "type": "VEC4"
    }
  ],
  "images": [
    {
      "uri": "materials/ash_armor.png"
    },
    {
      "uri": "materials/ember_bronze.png"
    }
  ],
  "samplers": [
    {
      "magFilter": 9729,
      "minFilter": 9987,
      "wrapS": 10497,
      "wrapT": 10497
    }
  ],
  "textures": [
    {
      "sampler": 0,
      "source": 0
    },
    {
      "sampler": 0,
      "source": 1
    }
  ],
  "materials": [
    {
      "name": "Ash and oxblood armor",
      "pbrMetallicRoughness": {
        "baseColorTexture": {
          "index": 0
        },
        "metallicFactor": 0.2,
        "roughnessFactor": 0.72
      }
    },
    {
      "name": "Tarnished weapon",
      "pbrMetallicRoughness": {
        "baseColorTexture": {
          "index": 1
        },
        "baseColorFactor": [
          0.65,
          0.62,
          0.58,
          1
        ],
        "metallicFactor": 0.75,
        "roughnessFactor": 0.4
      }
    }
  ],
  "meshes": [
    {
      "name": "Armor",
      "primitives": [
        {
          "attributes": {
            "POSITION": 1,
            "NORMAL": 2,
            "TANGENT": 3,
            "TEXCOORD_0": 4
          },
          "indices": 0,
          "material": 0
        }
      ]
    },
    {
      "name": "Metal",
      "primitives": [
        {
          "attributes": {
            "POSITION": 1,
            "NORMAL": 2,
            "TANGENT": 3,
            "TEXCOORD_0": 4
          },
          "indices": 0,
          "material": 1
        }
      ]
    }
  ],
  "nodes": [
    {
      "mesh": 0,
      "name": "Torso",
      "translation": [
        0,
        0.55,
        0
      ],
      "scale": [
        0.44,
        0.58,
        0.28
      ]
    },
    {
      "mesh": 0,
      "name": "Coat",
      "translation": [
        0,
        -0.05,
        0.02
      ],
      "scale": [
        0.52,
        0.25,
        0.34
      ]
    },
    {
      "mesh": 1,
      "name": "Head",
      "translation": [
        0,
        1.34,
        0
      ],
      "scale": [
        0.25,
        0.25,
        0.25
      ]
    },
    {
      "mesh": 1,
      "name": "Shoulders",
      "translation": [
        0,
        0.92,
        0
      ],
      "scale": [
        0.62,
        0.13,
        0.34
      ]
    },
    {
      "mesh": 1,
      "name": "Sword",
      "translation": [
        0.68,
        0.42,
        0
      ],
      "rotation": [
        0,
        0,
        0.3826834,
        0.9238795
      ],
      "scale": [
        0.07,
        0.62,
        0.07
      ]
    },
    {
      "name": "CharacterRoot",
      "children": [
        0,
        1,
        2,
        3,
        4
      ]
    }
  ],
  "scenes": [
    {
      "nodes": [
        5
      ]
    }
  ],
  "scene": 0,
  "animations": [
    {
      "name": "Idle",
      "samplers": [
        {
          "input": 5,
          "interpolation": "LINEAR",
          "output": 6
        },
        {
          "input": 5,
          "interpolation": "LINEAR",
          "output": 7
        },
        {
          "input": 5,
          "interpolation": "LINEAR",
          "output": 8
        }
      ],
      "channels": [
        {
          "sampler": 0,
          "target": {
            "node": 5,
            "path": "translation"
          }
        },
        {
          "sampler": 1,
          "target": {
            "node": 5,
            "path": "rotation"
          }
        },
        {
          "sampler": 2,
          "target": {
            "node": 4,
            "path": "rotation"
          }
        }
      ]
    },
    {
      "name": "Run",
      "samplers": [
        {
          "input": 9,
          "interpolation": "LINEAR",
          "output": 10
        },
        {
          "input": 9,
          "interpolation": "LINEAR",
          "output": 11
        },
        {
          "input": 9,
          "interpolation": "LINEAR",
          "output": 12
        }
      ],
      "channels": [
        {
          "sampler": 0,
          "target": {
            "node": 5,
            "path": "translation"
          }
        },
        {
          "sampler": 1,
          "target": {
            "node": 5,
            "path": "rotation"
          }
        },
        {
          "sampler": 2,
          "target": {
            "node": 4,
            "path": "rotation"
          }
        }
      ]
    },
    {
      "name": "Attack",
      "samplers": [
        {
          "input": 13,
          "interpolation": "LINEAR",
          "output": 14
        },
        {
          "input": 13,
          "interpolation": "LINEAR",
          "output": 15
        },
        {
          "input": 13,
          "interpolation": "LINEAR",
          "output": 16
        }
      ],
      "channels": [
        {
          "sampler": 0,
          "target": {
            "node": 5,
            "path": "translation"
          }
        },
        {
          "sampler": 1,
          "target": {
            "node": 5,
            "path": "rotation"
          }
        },
        {
          "sampler": 2,
          "target": {
            "node": 4,
            "path": "rotation"
          }
        }
      ]
    },
    {
      "name": "Dodge",
      "samplers": [
        {
          "input": 17,
          "interpolation": "LINEAR",
          "output": 18
        },
        {
          "input": 17,
          "interpolation": "LINEAR",
          "output": 19
        },
        {
          "input": 17,
          "interpolation": "LINEAR",
          "output": 20
        }
      ],
      "channels": [
        {
          "sampler": 0,
          "target": {
            "node": 5,
            "path": "translation"
          }
        },
        {
          "sampler": 1,
          "target": {
            "node": 5,
            "path": "rotation"
          }
        },
        {
          "sampler": 2,
          "target": {
            "node": 4,
            "path": "rotation"
          }
        }
      ]
    }
  ]
}
