{
  "asset": {
    "version": "2.0",
    "generator": "AVARRA Gothic Kit"
  },
  "buffers": [
    {
      "byteLength": 1800,
      "uri": "../cube/Cube.bin"
    },
    {
      "byteLength": 1280,
      "uri": "HollowWardenAnimation.bin"
    }
  ],
  "bufferViews": [
    {
      "buffer": 0,
      "byteLength": 72,
      "byteOffset": 0,
      "target": 34963
    },
    {
      "buffer": 0,
      "byteLength": 432,
      "byteOffset": 72,
      "target": 34962
    },
    {
      "buffer": 0,
      "byteLength": 432,
      "byteOffset": 504,
      "target": 34962
    },
    {
      "buffer": 0,
      "byteLength": 576,
      "byteOffset": 936,
      "target": 34962
    },
    {
      "buffer": 0,
      "byteLength": 288,
      "byteOffset": 1512,
      "target": 34962
    },
    {
      "buffer": 1,
      "byteLength": 16,
      "byteOffset": 0
    },
    {
      "buffer": 1,
      "byteLength": 48,
      "byteOffset": 16
    },
    {
      "buffer": 1,
      "byteLength": 64,
      "byteOffset": 64
    },
    {
      "buffer": 1,
      "byteLength": 64,
      "byteOffset": 128
    },
    {
      "buffer": 1,
      "byteLength": 64,
      "byteOffset": 192
    },
    {
      "buffer": 1,
      "byteLength": 16,
      "byteOffset": 256
    },
    {
      "buffer": 1,
      "byteLength": 48,
      "byteOffset": 272
    },
    {
      "buffer": 1,
      "byteLength": 64,
      "byteOffset": 320
    },
    {
      "buffer": 1,
      "byteLength": 64,
      "byteOffset": 384
    },
    {
      "buffer": 1,
      "byteLength": 64,
      "byteOffset": 448
    },
    {
      "buffer": 1,
      "byteLength": 16,
      "byteOffset": 512
    },
    {
      "buffer": 1,
      "byteLength": 48,
      "byteOffset": 528
    },
    {
      "buffer": 1,
      "byteLength": 64,
      "byteOffset": 576
    },
    {
      "buffer": 1,
      "byteLength": 64,
      "byteOffset": 640
    },
    {
      "buffer": 1,
      "byteLength": 64,
      "byteOffset": 704
    },
    {
      "buffer": 1,
      "byteLength": 16,
      "byteOffset": 768
    },
    {
      "buffer": 1,
      "byteLength": 48,
      "byteOffset": 784
    },
    {
      "buffer": 1,
      "byteLength": 64,
      "byteOffset": 832
    },
    {
      "buffer": 1,
      "byteLength": 64,
      "byteOffset": 896
    },
    {
      "buffer": 1,
      "byteLength": 64,
      "byteOffset": 960
    },
    {
      "buffer": 1,
      "byteLength": 16,
      "byteOffset": 1024
    },
    {
      "buffer": 1,
      "byteLength": 48,
      "byteOffset": 1040
    },
    {
      "buffer": 1,
      "byteLength": 64,
      "byteOffset": 1088
    },
    {
      "buffer": 1,
      "byteLength": 64,
      "byteOffset": 1152
    },
    {
      "buffer": 1,
      "byteLength": 64,
      "byteOffset": 1216
    }
  ],
  "accessors": [
    {
      "bufferView": 0,
      "componentType": 5123,
      "count": 36,
      "max": [
        35
      ],
      "min": [
        0
      ],
      "type": "SCALAR"
    },
    {
      "bufferView": 1,
      "componentType": 5126,
      "count": 36,
      "max": [
        1,
        1,
        1.000001
      ],
      "min": [
        -1,
        -1,
        -1
      ],
      "type": "VEC3"
    },
    {
      "bufferView": 2,
      "componentType": 5126,
      "count": 36,
      "max": [
        1,
        1,
        1
      ],
      "min": [
        -1,
        -1,
        -1
      ],
      "type": "VEC3"
    },
    {
      "bufferView": 3,
      "componentType": 5126,
      "count": 36,
      "max": [
        1,
        0,
        0,
        1
      ],
      "min": [
        0,
        0,
        -1,
        -1
      ],
      "type": "VEC4"
    },
    {
      "bufferView": 4,
      "componentType": 5126,
      "count": 36,
      "max": [
        1,
        1
      ],
      "min": [
        -1,
        -1
      ],
      "type": "VEC2"
    },
    {
      "bufferView": 5,
      "componentType": 5126,
      "count": 4,
      "max": [
        1.6
      ],
      "min": [
        0
      ],
      "type": "SCALAR"
    },
    {
      "bufferView": 6,
      "componentType": 5126,
      "count": 4,
      "type": "VEC3"
    },
    {
      "bufferView": 7,
      "componentType": 5126,
      "count": 4,
      "type": "VEC4"
    },
    {
      "bufferView": 8,
      "componentType": 5126,
      "count": 4,
      "type": "VEC4"
    },
    {
      "bufferView": 9,
      "componentType": 5126,
      "count": 4,
      "type": "VEC4"
    },
    {
      "bufferView": 10,
      "componentType": 5126,
      "count": 4,
      "max": [
        0.6
      ],
      "min": [
        0
      ],
      "type": "SCALAR"
    },
    {
      "bufferView": 11,
      "componentType": 5126,
      "count": 4,
      "type": "VEC3"
    },
    {
      "bufferView": 12,
      "componentType": 5126,
      "count": 4,
      "type": "VEC4"
    },
    {
      "bufferView": 13,
      "componentType": 5126,
      "count": 4,
      "type": "VEC4"
    },
    {
      "bufferView": 14,
      "componentType": 5126,
      "count": 4,
      "type": "VEC4"
    },
    {
      "bufferView": 15,
      "componentType": 5126,
      "count": 4,
      "max": [
        0.65
      ],
      "min": [
        0
      ],
      "type": "SCALAR"
    },
    {
      "bufferView": 16,
      "componentType": 5126,
      "count": 4,
      "type": "VEC3"
    },
    {
      "bufferView": 17,
      "componentType": 5126,
      "count": 4,
      "type": "VEC4"
    },
    {
      "bufferView": 18,
      "componentType": 5126,
      "count": 4,
      "type": "VEC4"
    },
    {
      "bufferView": 19,
      "componentType": 5126,
      "count": 4,
      "type": "VEC4"
    },
    {
      "bufferView": 20,
      "componentType": 5126,
      "count": 4,
      "max": [
        0.35
      ],
      "min": [
        0
      ],
      "type": "SCALAR"
    },
    {
      "bufferView": 21,
      "componentType": 5126,
      "count": 4,
      "type": "VEC3"
    },
    {
      "bufferView": 22,
      "componentType": 5126,
      "count": 4,
      "type": "VEC4"
    },
    {
      "bufferView": 23,
      "componentType": 5126,
      "count": 4,
      "type": "VEC4"
    },
    {
      "bufferView": 24,
      "componentType": 5126,
      "count": 4,
      "type": "VEC4"
    },
    {
      "bufferView": 25,
      "componentType": 5126,
      "count": 4,
      "max": [
        0.9
      ],
      "min": [
        0
      ],
      "type": "SCALAR"
    },
    {
      "bufferView": 26,
      "componentType": 5126,
      "count": 4,
      "type": "VEC3"
    },
    {
      "bufferView": 27,
      "componentType": 5126,
      "count": 4,
      "type": "VEC4"
    },
    {
      "bufferView": 28,
      "componentType": 5126,
      "count": 4,
      "type": "VEC4"
    },
    {
      "bufferView": 29,
      "componentType": 5126,
      "count": 4,
      "type": "VEC4"
    }
  ],
  "images": [
    {
      "uri": "materials/ash_armor.png"
    },
    {
      "uri": "materials/basalt_flagstone.png"
    }
  ],
  "samplers": [
    {
      "magFilter": 9729,
      "minFilter": 9987,
      "wrapS": 10497,
      "wrapT": 10497
    }
  ],
  "textures": [
    {
      "sampler": 0,
      "source": 0
    },
    {
      "sampler": 0,
      "source": 1
    }
  ],
  "materials": [
    {
      "name": "Ragged shell",
      "pbrMetallicRoughness": {
        "baseColorTexture": {
          "index": 0
        },
        "baseColorFactor": [
          0.52,
          0.42,
          0.42,
          1
        ],
        "metallicFactor": 0.12,
        "roughnessFactor": 0.86
      }
    },
    {
      "name": "Void horn",
      "pbrMetallicRoughness": {
        "baseColorTexture": {
          "index": 1
        },
        "baseColorFactor": [
          0.48,
          0.48,
          0.55,
          1
        ],
        "metallicFactor": 0.05,
        "roughnessFactor": 0.95
      }
    }
  ],
  "meshes": [
    {
      "name": "Shell",
      "primitives": [
        {
          "attributes": {
            "POSITION": 1,
            "NORMAL": 2,
            "TANGENT": 3,
            "TEXCOORD_0": 4
          },
          "indices": 0,
          "material": 0
        }
      ]
    },
    {
      "name": "Horn",
      "primitives": [
        {
          "attributes": {
            "POSITION": 1,
            "NORMAL": 2,
            "TANGENT": 3,
            "TEXCOORD_0": 4
          },
          "indices": 0,
          "material": 1
        }
      ]
    }
  ],
  "nodes": [
    {
      "mesh": 0,
      "name": "Hunched torso",
      "translation": [
        0,
        0.48,
        0
      ],
      "scale": [
        0.6,
        0.52,
        0.44
      ]
    },
    {
      "mesh": 0,
      "name": "Head",
      "translation": [
        0,
        1.18,
        -0.1
      ],
      "scale": [
        0.34,
        0.3,
        0.34
      ]
    },
    {
      "mesh": 0,
      "name": "Left arm",
      "translation": [
        -0.62,
        0.34,
        0
      ],
      "rotation": [
        0,
        0,
        0.258819,
        0.9659258
      ],
      "scale": [
        0.18,
        0.55,
        0.18
      ]
    },
    {
      "mesh": 0,
      "name": "Right arm",
      "translation": [
        0.62,
        0.34,
        0
      ],
      "rotation": [
        0,
        0,
        -0.258819,
        0.9659258
      ],
      "scale": [
        0.18,
        0.55,
        0.18
      ]
    },
    {
      "mesh": 1,
      "name": "Left horn",
      "translation": [
        -0.28,
        1.55,
        -0.1
      ],
      "rotation": [
        0,
        0,
        0.3826834,
        0.9238795
      ],
      "scale": [
        0.1,
        0.34,
        0.1
      ]
    },
    {
      "mesh": 1,
      "name": "Right horn",
      "translation": [
        0.28,
        1.55,
        -0.1
      ],
      "rotation": [
        0,
        0,
        -0.3826834,
        0.9238795
      ],
      "scale": [
        0.1,
        0.34,
        0.1
      ]
    },
    {
      "name": "CharacterRoot",
      "children": [
        0,
        1,
        2,
        3,
        4,
        5
      ]
    }
  ],
  "scenes": [
    {
      "nodes": [
        6
      ]
    }
  ],
  "scene": 0,
  "animations": [
    {
      "name": "Idle",
      "samplers": [
        {
          "input": 5,
          "interpolation": "LINEAR",
          "output": 6
        },
        {
          "input": 5,
          "interpolation": "LINEAR",
          "output": 7
        },
        {
          "input": 5,
          "interpolation": "LINEAR",
          "output": 8
        },
        {
          "input": 5,
          "interpolation": "LINEAR",
          "output": 9
        }
      ],
      "channels": [
        {
          "sampler": 0,
          "target": {
            "node": 6,
            "path": "translation"
          }
        },
        {
          "sampler": 1,
          "target": {
            "node": 6,
            "path": "rotation"
          }
        },
        {
          "sampler": 2,
          "target": {
            "node": 2,
            "path": "rotation"
          }
        },
        {
          "sampler": 3,
          "target": {
            "node": 3,
            "path": "rotation"
          }
        }
      ]
    },
    {
      "name": "Run",
      "samplers": [
        {
          "input": 10,
          "interpolation": "LINEAR",
          "output": 11
        },
        {
          "input": 10,
          "interpolation": "LINEAR",
          "output": 12
        },
        {
          "input": 10,
          "interpolation": "LINEAR",
          "output": 13
        },
        {
          "input": 10,
          "interpolation": "LINEAR",
          "output": 14
        }
      ],
      "channels": [
        {
          "sampler": 0,
          "target": {
            "node": 6,
            "path": "translation"
          }
        },
        {
          "sampler": 1,
          "target": {
            "node": 6,
            "path": "rotation"
          }
        },
        {
          "sampler": 2,
          "target": {
            "node": 2,
            "path": "rotation"
          }
        },
        {
          "sampler": 3,
          "target": {
            "node": 3,
            "path": "rotation"
          }
        }
      ]
    },
    {
      "name": "Attack",
      "samplers": [
        {
          "input": 15,
          "interpolation": "LINEAR",
          "output": 16
        },
        {
          "input": 15,
          "interpolation": "LINEAR",
          "output": 17
        },
        {
          "input": 15,
          "interpolation": "LINEAR",
          "output": 18
        },
        {
          "input": 15,
          "interpolation": "LINEAR",
          "output": 19
        }
      ],
      "channels": [
        {
          "sampler": 0,
          "target": {
            "node": 6,
            "path": "translation"
          }
        },
        {
          "sampler": 1,
          "target": {
            "node": 6,
            "path": "rotation"
          }
        },
        {
          "sampler": 2,
          "target": {
            "node": 2,
            "path": "rotation"
          }
        },
        {
          "sampler": 3,
          "target": {
            "node": 3,
            "path": "rotation"
          }
        }
      ]
    },
    {
      "name": "Hit",
      "samplers": [
        {
          "input": 20,
          "interpolation": "LINEAR",
          "output": 21
        },
        {
          "input": 20,
          "interpolation": "LINEAR",
          "output": 22
        },
        {
          "input": 20,
          "interpolation": "LINEAR",
          "output": 23
        },
        {
          "input": 20,
          "interpolation": "LINEAR",
          "output": 24
        }
      ],
      "channels": [
        {
          "sampler": 0,
          "target": {
            "node": 6,
            "path": "translation"
          }
        },
        {
          "sampler": 1,
          "target": {
            "node": 6,
            "path": "rotation"
          }
        },
        {
          "sampler": 2,
          "target": {
            "node": 2,
            "path": "rotation"
          }
        },
        {
          "sampler": 3,
          "target": {
            "node": 3,
            "path": "rotation"
          }
        }
      ]
    },
    {
      "name": "Death",
      "samplers": [
        {
          "input": 25,
          "interpolation": "LINEAR",
          "output": 26
        },
        {
          "input": 25,
          "interpolation": "LINEAR",
          "output": 27
        },
        {
          "input": 25,
          "interpolation": "LINEAR",
          "output": 28
        },
        {
          "input": 25,
          "interpolation": "LINEAR",
          "output": 29
        }
      ],
      "channels": [
        {
          "sampler": 0,
          "target": {
            "node": 6,
            "path": "translation"
          }
        },
        {
          "sampler": 1,
          "target": {
            "node": 6,
            "path": "rotation"
          }
        },
        {
          "sampler": 2,
          "target": {
            "node": 2,
            "path": "rotation"
          }
        },
        {
          "sampler": 3,
          "target": {
            "node": 3,
            "path": "rotation"
          }
        }
      ]
    }
  ]
}
