{
  "asset": {"version": "2.0", "generator": "AVARRA Gothic Kit"},
  "buffers": [{"byteLength": 1800, "uri": "../cube/Cube.bin"}],
  "bufferViews": [
    {"buffer": 0, "byteLength": 72, "byteOffset": 0, "target": 34963},
    {"buffer": 0, "byteLength": 432, "byteOffset": 72, "target": 34962},
    {"buffer": 0, "byteLength": 432, "byteOffset": 504, "target": 34962},
    {"buffer": 0, "byteLength": 576, "byteOffset": 936, "target": 34962},
    {"buffer": 0, "byteLength": 288, "byteOffset": 1512, "target": 34962}
  ],
  "accessors": [
    {"bufferView": 0, "componentType": 5123, "count": 36, "max": [35], "min": [0], "type": "SCALAR"},
    {"bufferView": 1, "componentType": 5126, "count": 36, "max": [1, 1, 1.000001], "min": [-1, -1, -1], "type": "VEC3"},
    {"bufferView": 2, "componentType": 5126, "count": 36, "max": [1, 1, 1], "min": [-1, -1, -1], "type": "VEC3"},
    {"bufferView": 3, "componentType": 5126, "count": 36, "max": [1, 0, 0, 1], "min": [0, 0, -1, -1], "type": "VEC4"},
    {"bufferView": 4, "componentType": 5126, "count": 36, "max": [1, 1], "min": [-1, -1], "type": "VEC2"}
  ],
  "images": [{"uri": "materials/basalt_flagstone.png"}],
  "samplers": [{"magFilter": 9729, "minFilter": 9987, "wrapS": 10497, "wrapT": 10497}],
  "textures": [{"sampler": 0, "source": 0}],
  "materials": [{"name": "Black basalt", "pbrMetallicRoughness": {"baseColorTexture": {"index": 0}, "metallicFactor": 0, "roughnessFactor": 0.9}}],
  "meshes": [{"name": "Basalt block", "primitives": [{"attributes": {"POSITION": 1, "NORMAL": 2, "TANGENT": 3, "TEXCOORD_0": 4}, "indices": 0, "material": 0}]}],
  "nodes": [{"mesh": 0, "name": "Basalt block"}],
  "scenes": [{"nodes": [0]}],
  "scene": 0
}
