{
  "asset": {"version": "2.0", "generator": "AVARRA Gothic Kit"},
  "buffers": [{"byteLength": 1800, "uri": "../cube/Cube.bin"}],
  "bufferViews": [
    {"buffer": 0, "byteLength": 72, "byteOffset": 0, "target": 34963}, {"buffer": 0, "byteLength": 432, "byteOffset": 72, "target": 34962},
    {"buffer": 0, "byteLength": 432, "byteOffset": 504, "target": 34962}, {"buffer": 0, "byteLength": 576, "byteOffset": 936, "target": 34962},
    {"buffer": 0, "byteLength": 288, "byteOffset": 1512, "target": 34962}
  ],
  "accessors": [
    {"bufferView": 0, "componentType": 5123, "count": 36, "max": [35], "min": [0], "type": "SCALAR"},
    {"bufferView": 1, "componentType": 5126, "count": 36, "max": [1, 1, 1.000001], "min": [-1, -1, -1], "type": "VEC3"},
    {"bufferView": 2, "componentType": 5126, "count": 36, "max": [1, 1, 1], "min": [-1, -1, -1], "type": "VEC3"},
    {"bufferView": 3, "componentType": 5126, "count": 36, "max": [1, 0, 0, 1], "min": [0, 0, -1, -1], "type": "VEC4"},
    {"bufferView": 4, "componentType": 5126, "count": 36, "max": [1, 1], "min": [-1, -1], "type": "VEC2"}
  ],
  "images": [{"uri": "materials/ember_bronze.png"}],
  "samplers": [{"magFilter": 9729, "minFilter": 9987, "wrapS": 10497, "wrapT": 10497}],
  "textures": [{"sampler": 0, "source": 0}],
  "materials": [{"name": "Ember shard", "pbrMetallicRoughness": {"baseColorTexture": {"index": 0}, "baseColorFactor": [1, 0.45, 0.12, 1], "metallicFactor": 0.55, "roughnessFactor": 0.28}, "emissiveTexture": {"index": 0}, "emissiveFactor": [0.65, 0.12, 0.01]}],
  "meshes": [{"primitives": [{"attributes": {"POSITION": 1, "NORMAL": 2, "TANGENT": 3, "TEXCOORD_0": 4}, "indices": 0, "material": 0}]}],
  "nodes": [
    {"mesh": 0, "name": "Shard", "rotation": [0, 0.3826834, 0, 0.9238795], "scale": [0.42, 0.7, 0.42]},
    {"mesh": 0, "name": "Orbit one", "translation": [0.62, -0.2, 0], "rotation": [0, 0, 0.3826834, 0.9238795], "scale": [0.12, 0.3, 0.12]},
    {"mesh": 0, "name": "Orbit two", "translation": [-0.55, 0.2, 0.15], "rotation": [0, 0, -0.3826834, 0.9238795], "scale": [0.1, 0.25, 0.1]}
  ],
  "scenes": [{"nodes": [0, 1, 2]}],
  "scene": 0
}
