{
  "asset": {"version": "2.0", "generator": "AVARRA Gothic Kit"},
  "buffers": [{"byteLength": 1800, "uri": "../cube/Cube.bin"}],
  "bufferViews": [
    {"buffer": 0, "byteLength": 72, "byteOffset": 0, "target": 34963}, {"buffer": 0, "byteLength": 432, "byteOffset": 72, "target": 34962},
    {"buffer": 0, "byteLength": 432, "byteOffset": 504, "target": 34962}, {"buffer": 0, "byteLength": 576, "byteOffset": 936, "target": 34962},
    {"buffer": 0, "byteLength": 288, "byteOffset": 1512, "target": 34962}
  ],
  "accessors": [
    {"bufferView": 0, "componentType": 5123, "count": 36, "max": [35], "min": [0], "type": "SCALAR"},
    {"bufferView": 1, "componentType": 5126, "count": 36, "max": [1, 1, 1.000001], "min": [-1, -1, -1], "type": "VEC3"},
    {"bufferView": 2, "componentType": 5126, "count": 36, "max": [1, 1, 1], "min": [-1, -1, -1], "type": "VEC3"},
    {"bufferView": 3, "componentType": 5126, "count": 36, "max": [1, 0, 0, 1], "min": [0, 0, -1, -1], "type": "VEC4"},
    {"bufferView": 4, "componentType": 5126, "count": 36, "max": [1, 1], "min": [-1, -1], "type": "VEC2"}
  ],
  "images": [{"uri": "materials/ash_armor.png"}, {"uri": "materials/basalt_flagstone.png"}],
  "samplers": [{"magFilter": 9729, "minFilter": 9987, "wrapS": 10497, "wrapT": 10497}],
  "textures": [{"sampler": 0, "source": 0}, {"sampler": 0, "source": 1}],
  "materials": [
    {"name": "Ragged shell", "pbrMetallicRoughness": {"baseColorTexture": {"index": 0}, "baseColorFactor": [0.52, 0.42, 0.42, 1], "metallicFactor": 0.12, "roughnessFactor": 0.86}},
    {"name": "Void horn", "pbrMetallicRoughness": {"baseColorTexture": {"index": 1}, "baseColorFactor": [0.48, 0.48, 0.55, 1], "metallicFactor": 0.05, "roughnessFactor": 0.95}}
  ],
  "meshes": [
    {"name": "Shell", "primitives": [{"attributes": {"POSITION": 1, "NORMAL": 2, "TANGENT": 3, "TEXCOORD_0": 4}, "indices": 0, "material": 0}]},
    {"name": "Horn", "primitives": [{"attributes": {"POSITION": 1, "NORMAL": 2, "TANGENT": 3, "TEXCOORD_0": 4}, "indices": 0, "material": 1}]}
  ],
  "nodes": [
    {"mesh": 0, "name": "Hunched torso", "translation": [0, 0.48, 0], "scale": [0.6, 0.52, 0.44]},
    {"mesh": 0, "name": "Head", "translation": [0, 1.18, -0.1], "scale": [0.34, 0.3, 0.34]},
    {"mesh": 0, "name": "Left arm", "translation": [-0.62, 0.34, 0], "rotation": [0, 0, 0.258819, 0.9659258], "scale": [0.18, 0.55, 0.18]},
    {"mesh": 0, "name": "Right arm", "translation": [0.62, 0.34, 0], "rotation": [0, 0, -0.258819, 0.9659258], "scale": [0.18, 0.55, 0.18]},
    {"mesh": 1, "name": "Left horn", "translation": [-0.28, 1.55, -0.1], "rotation": [0, 0, 0.3826834, 0.9238795], "scale": [0.1, 0.34, 0.1]},
    {"mesh": 1, "name": "Right horn", "translation": [0.28, 1.55, -0.1], "rotation": [0, 0, -0.3826834, 0.9238795], "scale": [0.1, 0.34, 0.1]}
  ],
  "scenes": [{"nodes": [0, 1, 2, 3, 4, 5]}],
  "scene": 0
}
